HIERARCHY
ROOT Hips
{
	OFFSET	0.00	0.00	0.00
	CHANNELS 6 Xposition Yposition Zposition Zrotation Xrotation Yrotation
	JOINT Spine
	{
		OFFSET	 0.00	0.01	 0.00
		CHANNELS 3 Zrotation Xrotation Yrotation
		JOINT Spine1
		{
			OFFSET	 0.00	 2.45913012437421	 0.00
			CHANNELS 3 Zrotation Xrotation Yrotation
            JOINT Neck
            {
                OFFSET	 0.00	 2.48462964506057	 0.00
                CHANNELS 3 Zrotation Xrotation Yrotation
                JOINT Head
                {
                    OFFSET	 0.00	 0.927524780924562	 0.00
                    CHANNELS 3 Zrotation Xrotation Yrotation
                    End Site 
                    {
                        OFFSET	 0.00	 1.14999962169752	 0.00
                    }
                }
            }
			JOINT LeftShoulder
			{
				OFFSET	 0.00	 2.48462964506057	 0.00
				CHANNELS 3 Zrotation Xrotation Yrotation
				JOINT LeftUpArm
				{
					OFFSET	 0.00	 1.24881979654096	 0.00
					CHANNELS 3 Zrotation Xrotation Yrotation
					JOINT LeftForeArm
					{
						OFFSET	 0.00	2.59758046908119	 0.00
						CHANNELS 3 Zrotation Xrotation Yrotation
						JOINT LeftHand
						{
							OFFSET	 0.00	2.45542024364365	 0.00
							CHANNELS 3 Zrotation Xrotation Yrotation
							JOINT LeftHandThumb 
							{
								OFFSET	 0.00	0.00	 0.00
								CHANNELS 3 Zrotation Xrotation Yrotation
								End Site
								{
									OFFSET	 0.00	0.00	1.00000003353624
								}
							}
							JOINT L_Wrist_End 
							{
								OFFSET	 0.00	0.99999967115358	 0.00
								CHANNELS 3 Zrotation Xrotation Yrotation
								End Site 
								{
									OFFSET	 0.00	 0.00	 0.00
								}
							}
						}
					}
				}
			}
			JOINT RightShoulder
			{
				OFFSET	 0.00	 2.48462964506057	 0.00
				CHANNELS 3 Zrotation Xrotation Yrotation
				JOINT RightUpArm
				{
					OFFSET	 0.00	 1.24881979654096	 0.00
					CHANNELS 3 Zrotation Xrotation Yrotation
					JOINT RightForeArm
					{
						OFFSET	 0.00	2.59758046908119	 0.00
						CHANNELS 3 Zrotation Xrotation Yrotation
						JOINT RightHand
						{
							OFFSET	 0.00	2.45542024364365	 0.00
							CHANNELS 3 Zrotation Xrotation Yrotation
							JOINT RightHandThumb 
							{
								OFFSET	 0.00	0.00	 0.00
								CHANNELS 3 Zrotation Xrotation Yrotation
								End Site
								{
									OFFSET	 0.00	0.00	1.00000003353624
								}
							}
							JOINT R_Wrist_End 
							{
								OFFSET	 0.00	0.99999967115358	 0.00
								CHANNELS 3 Zrotation Xrotation Yrotation
								End Site 
								{
									OFFSET	 0.00	 0.00	 0.00
								}
							}
						}
					}
				}
			}
		}
	}
	JOINT LeftUpLeg
	{
		OFFSET	 1.2719394002717	 0.00	 0.00
		CHANNELS 3 Zrotation Xrotation Yrotation
		JOINT LeftLowLeg
		{
			OFFSET	 0.00	-4.3429100912261	 0.00
			CHANNELS 3 Zrotation Xrotation Yrotation
			JOINT LeftFoot
			{
				OFFSET	 0.00	-4.48767017425826	 0.00
				CHANNELS 3 Zrotation Xrotation Yrotation
				JOINT LeftToeBase
                {
                    OFFSET	 0.00	0.00	 1.51507020887566
                    CHANNELS 3 Zrotation Xrotation Yrotation
                    End Site 
                    {
                        OFFSET	 0.00	0.00	 0.75000010571191
                    }
                }
			}
		}
	}
	JOINT RightUpLeg
	{
		OFFSET	 -1.2719393604653	 0.00	 0.00
		CHANNELS 3 Zrotation Xrotation Yrotation
		JOINT RightLowLeg
		{
			OFFSET	 0.00	-4.3429100912261	 0.00
			CHANNELS 3 Zrotation Xrotation Yrotation
			JOINT RightFoot
			{
				OFFSET	 0.00	-4.48767017425826	 0.00
				CHANNELS 3 Zrotation Xrotation Yrotation
				JOINT RightToeBase
                {
                    OFFSET	 0.00	0.00	 1.51507020887566
                    CHANNELS 3 Zrotation Xrotation Yrotation
                    End Site 
                    {
                        OFFSET	 0.00	0.00	 0.749999965609858
                    }
                }   
			}
		}
	}
}
MOTION 
Frames:	17 
Frame Time: 0.02 
  3.5052200317382813 2.6049099731445313 4.22489990234375 -158.449 57.5124 -192.795 -6.64908 68.333 24.7527 22.234 -8.5903 0.0351155 -3.3386 16.6063 -45.134 119.724 -44.8849 -257.134 -114.1541 35.7981 16.4813 54.2091 49.2943 -76.9741 0.0 144.042 0.0 110.239 38.9383 -13.0223 0.0 0.0 0.0 0.0 0.0 0.0 98.53182 17.3888 -10.4311 -51.5038 50.92 75.5322 0.0 144.549 0.0 -113.874 40.0746 5.00063 0.0 0.0 0.0 0.0 0.0 0.0 -1.54523 -65.7744 -16.0292 0.0 144.024 0.0 1.95563 -12.863501 -0.714442 0.0 -73.4588 0.0 10.0708 -59.2374 9.17509 0.0 134.167 0.0 21.9532 -8.1119 39.6018 0.0 -60.5983 0.0 
  3.515 2.5876800537109377 4.232969970703125 -158.583 57.3068 -192.917 -5.07803 68.7155 22.9152 20.9344 -9.08351 -0.0791239 -3.225 17.5276 -44.9663 120.426 -44.5465 -256.897 -113.1725 35.1944 14.7538 52.5483 50.5684 -74.5488 0.0 144.541 0.0 111.047 39.6499 -11.5571 0.0 0.0 0.0 0.0 0.0 0.0 99.29941 18.0703 -12.3437 -51.9128 50.0472 74.7742 0.0 143.774 0.0 -115.478 38.4475 8.45719 0.0 0.0 0.0 0.0 0.0 0.0 -1.21278 -65.713 -15.4363 0.0 143.916 0.0 1.39616 -12.8745 -0.900684 0.0 -72.8696 0.0 10.2316 -59.1827 9.04484 0.0 134.013 0.0 22.7191 -8.0037 39.3809 0.0 -60.8989 0.0 
  3.5212298583984376 2.5746200561523436 4.237349853515625 -159.025 57.0909 -192.787 -2.41314 69.1482 19.3771 18.864 -9.72267 -1.0166 -3.34076 18.7223 -43.7789 121.535 -43.7947 -256.603 -111.371 33.9066 12.3155 48.2267 51.5257 -69.7062 0.0 145.0 0.0 111.164 40.0894 -10.9273 0.0 0.0 0.0 0.0 0.0 0.0 100.1858 19.9443 -12.3344 -49.7507 51.5353 71.1646 0.0 142.795 0.0 -116.784 37.1979 10.7144 0.0 0.0 0.0 0.0 0.0 0.0 -0.883425 -65.7432 -14.7869 0.0 143.801 0.0 0.668403 -13.0446 -1.32474 0.0 -72.6949 0.0 10.2901 -59.2677 8.83522 0.0 134.042 0.0 23.246 -8.2831 38.7019 0.0 -61.1177 0.0 
  3.5277200317382813 2.5652200317382814 4.239979858398438 -159.556 56.9549 -192.551 -0.663107 69.3237 17.0486 17.3539 -9.9347 -1.69797 -3.18924 18.1403 -43.0022 121.435 -43.5679 -256.842 -109.6592 32.9683 9.60643 44.5419 52.9013 -65.3942 0.0 144.793 0.0 110.831 39.6305 -11.1505 0.0 0.0 0.0 0.0 0.0 0.0 100.7063 20.826 -12.2031 -48.5152 52.7519 69.2048 0.0 141.821 0.0 -117.558 36.6259 12.0095 0.0 0.0 0.0 0.0 0.0 0.0 -0.766426 -65.7848 -14.34 0.0 143.725 0.0 -0.754611 -13.442301 -2.30352 0.0 -72.557495 0.0 10.229 -59.3364 8.50726 0.0 134.096 0.0 23.3507 -9.447399 38.0843 0.0 -60.4045 0.0 
  3.5327801513671875 2.5573500061035155 4.241400146484375 -160.221 56.7975 -192.151 7.70965 70.133 6.12202 12.6346 -11.8432 -4.58435 -6.19744 22.8029 -37.1138 125.735 -41.9651 -256.636 -107.7513 29.4927 8.60346 37.411 50.6184 -58.2706 0.0 145.419 0.0 111.09 37.7702 -12.1049 0.0 0.0 0.0 0.0 0.0 0.0 105.354904 28.6202 -17.1143 -45.6626 50.6104 65.2256 0.0 141.139 0.0 -117.691 36.4778 10.4248 0.0 0.0 0.0 0.0 0.0 0.0 -0.739479 -65.811 -13.9415 0.0 143.636 0.0 -2.10134 -14.353701 -3.30066 0.0 -70.9138 0.0 10.0161 -59.4931 7.90899 0.0 134.192 0.0 23.2279 -10.9543 37.4519 0.0 -59.3719 0.0 
  3.5225201416015626 2.575669860839844 4.2218701171875 -162.403 54.0207 -190.765 8.54608 66.438 4.04941 10.2752 -10.4527 -6.50913 -6.00613 20.5576 -34.9783 124.529 -42.2632 -258.041 -105.5147 26.4006 9.20306 38.5394 49.8927 -59.8371 0.0 144.76 0.0 110.551 35.9197 -11.8265 0.0 0.0 0.0 0.0 0.0 0.0 106.3841 31.1233 -17.3906 -45.0296 51.0738 64.8618 0.0 140.718 0.0 -116.562 36.4064 8.78995 0.0 0.0 0.0 0.0 0.0 0.0 -0.139914 -68.9828 -12.738 0.0 143.887 0.0 -3.80575 -15.561899 -4.69646 0.0 -69.822 0.0 11.2073 -62.8488 8.89001 0.0 134.921 0.0 22.7186 -12.6506 36.1924 0.0 -59.1253 0.0 
  3.525469970703125 2.6373300170898437 4.1318701171875 -167.1 44.4478 -186.978 10.6047 53.1685 -0.524016 5.03935 -5.52012 -9.99048 -5.03922 17.1125 -31.0562 122.019 -42.5334 -260.73 -100.7944 20.813 7.85306 39.251 50.1159 -61.9542 0.0 144.221 0.0 110.615 34.3543 -11.0006 0.0 0.0 0.0 0.0 0.0 0.0 108.2124 35.704 -17.0241 -44.5148 52.2133 64.8781 0.0 140.087 0.0 -115.641 36.5984 8.36172 0.0 0.0 0.0 0.0 0.0 0.0 -4.90631 -79.8263 -15.7213 0.0 145.073 0.0 -4.73733 -16.4001 -5.21533 0.0 -68.9957 0.0 14.6222 -73.9792 13.2202 0.0 137.412 0.0 20.9492 -14.682699 34.0016 0.0 -58.5535 0.0 
  3.5229998779296876 2.6133599853515626 4.165079956054687 -165.448 49.3861 -188.593 11.9717 59.7804 -1.60575 5.11766 -7.70223 -9.66028 -4.92081 16.4946 -31.4228 122.333 -42.6446 -260.659 -101.9817 20.6025 10.3168 40.9745 49.0332 -63.8021 0.0 143.234 0.0 110.456 34.5142 -11.6554 0.0 0.0 0.0 0.0 0.0 0.0 108.9332 35.2873 -18.3512 -45.233 51.812 65.2586 0.0 139.845 0.0 -114.89 36.3085 7.26792 0.0 0.0 0.0 0.0 0.0 0.0 -0.768698 -74.4445 -11.8765 0.0 144.563 0.0 -6.38036 -17.551498 -6.42371 0.0 -68.7561 0.0 12.4747 -68.4562 9.19825 0.0 136.677 0.0 20.9023 -16.6531 32.3988 0.0 -56.6154 0.0 
  3.5307101440429687 2.61302001953125 4.170429992675781 -165.078 50.9849 -189.008 12.5521 61.8787 -1.95691 5.06899 -8.32852 -9.35639 -4.48908 15.478 -32.0916 122.038 -42.9526 -260.789 -102.5755 20.729 12.2129 43.2226 48.1018 -66.4084 0.0 142.372 0.0 110.588 33.6965 -12.6023 0.0 0.0 0.0 0.0 0.0 0.0 108.2135 34.4175 -17.068 -44.6107 52.908 64.5415 0.0 139.594 0.0 -114.581 36.4447 7.23112 0.0 0.0 0.0 0.0 0.0 0.0 -0.421284 -72.7954 -11.1788 0.0 144.469 0.0 -8.01037 -18.429901 -7.29093 0.0 -71.3525 0.0 11.724 -66.7724 7.36145 0.0 136.747 0.0 21.0341 -18.3162 31.0152 0.0 -55.626 0.0 
  3.535989990234375 2.625570068359375 4.1620700073242185 -165.31 51.3812 -188.889 12.8581 62.3333 -2.25797 4.61795 -8.36257 -9.34507 -3.78589 14.6351 -32.5589 121.541 -43.0499 -260.921 -102.9358 20.5893 14.4492 46.4727 46.539 -69.7461 0.0 140.972 0.0 111.09 33.4148 -13.9146 0.0 0.0 0.0 0.0 0.0 0.0 107.427704 33.6535 -15.3603 -44.0296 54.3573 63.7539 0.0 139.473 0.0 -114.371 36.0458 6.20788 0.0 0.0 0.0 0.0 0.0 0.0 -0.519753 -72.5174 -10.7111 0.0 144.63 0.0 -9.08672 -19.524899 -7.81171 0.0 -71.0848 0.0 10.9196 -66.7032 5.43879 0.0 137.218 0.0 19.9547 -19.9189 28.5503 0.0 -54.003 0.0 
  3.5381698608398438 2.638219909667969 4.149700012207031 -165.668 51.5363 -188.759 12.824 62.6537 -2.40366 4.37656 -9.23831 -9.57688 -4.2619 16.407 -32.4905 123.047 -42.4754 -260.136 -100.962 20.1829 6.36174 36.7348 52.7386 -58.9954 0.0 140.611 0.0 112.015 34.2669 -16.4953 0.0 0.0 0.0 0.0 0.0 0.0 107.708 34.3091 -16.0795 -43.4414 53.9688 63.0257 0.0 139.434 0.0 -114.347 35.5704 6.43779 0.0 0.0 0.0 0.0 0.0 0.0 -0.19308 -72.4836 -9.68165 0.0 144.823 0.0 -9.33043 -20.421299 -7.63912 0.0 -69.1072 0.0 10.8362 -66.7449 4.35337 0.0 137.681 0.0 18.6693 -21.6109 25.8485 0.0 -51.7328 0.0 
  3.561940002441406 2.619259948730469 4.174179992675781 -163.133 56.9635 -190.55 21.2943 69.664 -10.9457 2.70101 -12.1836 -9.6681 -4.52174 18.7349 -32.1175 125.128 -41.3189 -259.088 -101.9056 19.506 8.18728 38.2673 51.9619 -59.7424 0.0 140.104 0.0 111.967 32.9479 -17.5293 0.0 0.0 0.0 0.0 0.0 0.0 109.8864 34.7431 -18.3777 -43.9568 53.3425 63.7164 0.0 139.768 0.0 -114.251 35.6259 5.1214 0.0 0.0 0.0 0.0 0.0 0.0 -0.661745 -66.6248 -9.88575 0.0 144.477 0.0 -8.57148 -21.1675 -6.19443 0.0 -68.213104 0.0 8.0414 -60.6214 -0.204841 0.0 137.089 0.0 17.1284 -23.1237 23.0773 0.0 -50.6332 0.0 
  3.5673199462890626 2.638429870605469 4.1625299072265625 -163.344 57.1233 -190.427 21.4685 70.0201 -11.1416 2.67279 -12.5024 -9.72031 -4.77171 19.4892 -32.2071 125.907 -41.0206 -258.649 -102.217 19.187 8.94997 40.475 51.6587 -61.95 0.0 139.697 0.0 112.259 32.0055 -17.2463 0.0 0.0 0.0 0.0 0.0 0.0 109.9189 34.3449 -18.366 -44.9832 53.5021 65.2494 0.0 139.694 0.0 -114.589 35.7783 6.27929 0.0 0.0 0.0 0.0 0.0 0.0 -0.787409 -66.677 -9.2094 0.0 144.696 0.0 -7.34139 -21.6377 -4.41213 0.0 -67.867905 0.0 7.62646 -60.6653 -1.47264 0.0 137.54 0.0 14.8947 -24.453602 19.7577 0.0 -47.9442 0.0 
  3.5725799560546876 2.6604998779296873 4.146059875488281 -163.674 57.0235 -190.251 25.5198 69.4512 -16.686 0.412936 -12.536 -11.6223 -6.53866 20.8052 -28.7591 127.506 -40.3039 -258.814 -101.592 14.312 9.49347 44.8451 52.5364 -67.5765 0.0 137.977 0.0 117.68 33.3373 -19.5598 0.0 0.0 0.0 0.0 0.0 0.0 113.1281 37.5755 -22.3647 -47.7738 51.8989 67.758 0.0 139.325 0.0 -114.217 35.1728 7.05886 0.0 0.0 0.0 0.0 0.0 0.0 -0.759203 -66.9898 -8.30969 0.0 144.981 0.0 -5.88933 -22.14 -2.42268 0.0 -67.0775 0.0 7.38394 -61.0345 -2.49236 0.0 138.11 0.0 11.3256 -25.785099 15.5505 0.0 -43.8743 0.0 
  3.5802801513671874 2.6846499633789063 4.130979919433594 -163.76 57.1752 -190.294 25.9573 69.9284 -17.1074 0.418023 -13.0306 -11.6395 -7.15527 21.6083 -28.5356 128.456 -40.08 -258.465 -102.0513 13.8177 10.3494 47.253 51.9485 -69.6542 0.0 137.892 0.0 118.085 32.7397 -19.1127 0.0 0.0 0.0 0.0 0.0 0.0 113.4124 37.0281 -23.0627 -50.0198 51.6047 69.5649 0.0 139.267 0.0 -113.448 33.6501 5.10208 0.0 0.0 0.0 0.0 0.0 0.0 -0.741412 -67.0815 -7.5076 0.0 145.231 0.0 -4.91611 -22.3065 -0.796661 0.0 -69.029 0.0 7.05159 -61.0931 -3.45204 0.0 138.533 0.0 10.4261 -26.3308 13.6598 0.0 -39.6526 0.0 
  3.586409912109375 2.7086700439453124 4.115929870605469 -163.86 57.2755 -190.338 26.4856 70.3282 -17.7974 0.409734 -13.4763 -11.9185 -8.03186 22.1967 -27.8642 129.626 -39.7296 -258.057 -102.45 12.7328 10.7756 49.3861 51.6262 -71.5166 0.0 137.941 0.0 119.123 32.132 -18.9726 0.0 0.0 0.0 0.0 0.0 0.0 113.6486 36.9001 -23.2871 -51.7982 51.8937 70.5425 0.0 139.268 0.0 -112.858 31.8816 4.10089 0.0 0.0 0.0 0.0 0.0 0.0 -0.618127 -67.2195 -6.67252 0.0 145.498 0.0 -3.41864 -22.5089 0.986396 0.0 -65.0987 0.0 6.88532 -61.2828 -4.28129 0.0 138.915 0.0 8.87011 -26.769001 11.1505 0.0 -43.3768 0.0 
  3.5917498779296877 2.7349798583984377 4.098840026855469 -164.0 57.396 -190.382 28.7216 70.4311 -20.7228 -0.772984 -13.7233 -12.8388 -8.68883 22.3285 -26.1246 130.639 -39.1037 -258.016 -102.0982 10.5759 10.5241 51.1098 51.6265 -72.941 0.0 138.054 0.0 120.01 31.5225 -18.8896 0.0 0.0 0.0 0.0 0.0 0.0 114.9301 37.7081 -24.2508 -53.8451 52.0466 71.8075 0.0 139.253 0.0 -113.087 30.1966 3.36631 0.0 0.0 0.0 0.0 0.0 0.0 -0.418488 -67.341 -5.85085 0.0 145.789 0.0 -2.48204 -22.575699 2.32193 0.0 -66.562195 0.0 6.73013 -61.5483 -5.0654 0.0 139.278 0.0 7.57344 -27.126099 8.79946 0.0 -52.5531 0.0 
